<svg xmlns="http://www.w3.org/2000/svg" width="172.396" height="37.635" viewBox="0 0 172.396 37.635">
  <g id="g841" transform="translate(27.042 708.879)">
    <path id="path845" d="M2.434-671.767c-3.125-1.308-5.1-4.806-5.449-9.632-.371-5.184.615-8.584,3.3-11.39,2.06-2.15,2.43-2.325,4.928-2.325,4.474,0,7.215,3.026,7.882,8.7l.348,2.962H-.482v1.621c0,2.774,1.11,6.193,2.4,7.41a6.821,6.821,0,0,0,3.664,1.438c2.26.255,2.548.141,4.274-1.69a7.294,7.294,0,0,0,1.851-2.72c0-.417.239-.757.53-.757,1.392,0-.319,3.523-2.672,5.5a7.485,7.485,0,0,1-7.136.877Zm7.961-15.254c-.47-3.134-1.508-5.183-3.179-6.278a4.337,4.337,0,0,0-5.308.832,12.862,12.862,0,0,0-2.367,6.5l-.023,1.458H10.772ZM43.164-672c-2.565-1.159-3.535-3.017-3.23-6.186.425-4.423,3.774-7.006,10.655-8.22,2.331-.411,2.733-1.075,2.24-3.7s-1.974-3.943-4.464-3.943c-2.862,0-4.843,1.642-4.843,4.015,0,1.585-.169,1.817-1.325,1.817-1.1,0-1.325-.255-1.325-1.473,0-3.2,3.045-5.42,7.422-5.42,3.227,0,5.395,1,6.259,2.9.409.9.633,4.487.633,10.15v8.76l1.193-.169c.854-.121,1.241-.583,1.361-1.627.092-.8.42-1.458.729-1.458.681,0,.16,3.022-.7,4.058-.923,1.113-3.471.873-4.37-.41l-.787-1.124-1.584,1.127a8.971,8.971,0,0,1-7.863.905Zm6.357-1.442c3.142-1.618,3.544-2.463,3.544-7.448,0-2.574-.2-4.679-.434-4.679a30.31,30.31,0,0,0-7.3,2.464c-2.93,1.92-3.651,7.359-1.237,9.332a5.4,5.4,0,0,0,5.426.332Zm61.278.974a12.294,12.294,0,0,1-3.122-3.579c-1.117-2-1.321-3.06-1.325-6.886s.207-4.932,1.352-7.157c1.661-3.228,4.15-5.023,6.965-5.023,4.431,0,7.215,3.063,7.706,8.48l.286,3.151-6.832.149-6.832.149.147,2.386c.229,3.725,1.118,5.811,2.957,6.931,3.265,1.991,6.73.843,8.657-2.869.479-.922.969-1.383,1.09-1.025.36,1.065-2.123,4.961-3.672,5.763a7.689,7.689,0,0,1-7.376-.47Zm8.943-14.731a7.65,7.65,0,0,0-3.736-6.305c-1.217-.691-1.574-.681-3.179.084-2,.953-3.248,3.132-3.822,6.658l-.367,2.253H120ZM-26.991-672.28c0-.271.537-.569,1.193-.662l1.193-.169.14-16.243.14-16.243-1.333-.335c-2.75-.69-1.233-1.375,3.041-1.372,5.861,0,8.154.721,10.817,3.385,3.067,3.067,4.125,6.771,4.106,14.373-.024,9.232-2.02,14.276-6.557,16.568-1.97.995-3.222,1.193-7.551,1.193-2.854,0-5.189-.222-5.189-.493Zm10.241-1.162c3.76-1.932,5.319-5.257,5.935-12.659.715-8.6-1.133-16.149-4.576-18.694-1.352-1-4.592-1.383-5.732-.678-.846.523-.778,31.142.071,31.991.8.8,2.79.818,4.3.041ZM64.2-672.287c0-.276,1.133-.574,2.518-.663l2.518-.161v-20.146l-2.518-.162c-3.6-.231-3.415-1.526.265-1.812a16.147,16.147,0,0,0,3.711-.636c.867-.392.928.293.928,10.463,0,5.985.145,11.259.322,11.72.226.589,1.016.839,2.651.839,1.281,0,2.329.239,2.329.53,0,.324-2.474.53-6.362.53C66.918-671.786,64.2-672,64.2-672.287Zm21.737,0c0-.276,1.133-.574,2.518-.663l2.518-.161.14-16.239.14-16.239-1.2-.322a12.689,12.689,0,0,0-2.658-.329c-.8,0-1.458-.246-1.458-.537s1.014-.539,2.253-.549a8.878,8.878,0,0,0,3.579-.776,7.019,7.019,0,0,1,1.716-.777c.215-.01.453,8.033.53,17.875l.14,17.893,2.518.162c1.385.089,2.518.387,2.518.663s-2.819.5-6.627.5-6.627-.213-6.627-.5Zm40.823,0c0-.275,1.014-.573,2.253-.662l2.253-.163v-20.146l-2.253-.163c-1.239-.09-2.253-.4-2.253-.68,0-.667.671-.857,4.374-1.239l3.048-.314v6.58l1.592-2.166c2.037-2.769,3.747-3.875,5.994-3.875,2.923,0,4.733,3.127,2.758,4.766-1.219,1.012-2.393.243-2.393-1.568,0-3.334-4.094-1.4-6.538,3.095-1.385,2.545-1.441,2.941-1.3,9.185l.149,6.525,2.518.161c1.385.089,2.518.387,2.518.663s-2.72.5-6.362.5-6.362-.215-6.362-.5ZM21.564-676.425c2.979-6.7,5.523-12.83,5.523-13.314,0-.281-2.565-2.931-5.7-5.888L15.688-701l4.772,2.769c2.624,1.522,5.655,3.321,6.734,4l1.963,1.228,2.86-4.895c3.828-6.551,4.2-7.149,3.912-6.22-.138.438-1.349,3.622-2.691,7.077s-2.441,6.363-2.441,6.462a17.084,17.084,0,0,0,2.385,1.892c1.312.942,2.3,1.8,2.2,1.9a8.815,8.815,0,0,1-2.694-.885,17.446,17.446,0,0,0-2.971-1.073c-.256,0-2.409,3.459-4.784,7.688s-4.409,7.688-4.52,7.688a13.935,13.935,0,0,1,1.154-3.049Zm47.753-27.08c-1.149-1.27-1.107-1.982.2-3.284,1.978-1.978,4.475.6,2.9,3C71.432-702.285,70.5-702.2,69.317-703.505Z" transform="translate(0 0)" fill="#fffdfd"/>
    <path id="path845-2" data-name="path845" d="M2.434-671.767c-3.125-1.308-5.1-4.806-5.449-9.632-.371-5.184.615-8.584,3.3-11.39,2.06-2.15,2.43-2.325,4.928-2.325,4.474,0,7.215,3.026,7.882,8.7l.348,2.962H-.482v1.621c0,2.774,1.11,6.193,2.4,7.41a6.821,6.821,0,0,0,3.664,1.438c2.26.255,2.548.141,4.274-1.69a7.294,7.294,0,0,0,1.851-2.72c0-.417.239-.757.53-.757,1.392,0-.319,3.523-2.672,5.5a7.485,7.485,0,0,1-7.136.877Zm7.961-15.254c-.47-3.134-1.508-5.183-3.179-6.278a4.337,4.337,0,0,0-5.308.832,12.862,12.862,0,0,0-2.367,6.5l-.023,1.458H10.772ZM43.164-672c-2.565-1.159-3.535-3.017-3.23-6.186.425-4.423,3.774-7.006,10.655-8.22,2.331-.411,2.733-1.075,2.24-3.7s-1.974-3.943-4.464-3.943c-2.862,0-4.843,1.642-4.843,4.015,0,1.585-.169,1.817-1.325,1.817-1.1,0-1.325-.255-1.325-1.473,0-3.2,3.045-5.42,7.422-5.42,3.227,0,5.395,1,6.259,2.9.409.9.633,4.487.633,10.15v8.76l1.193-.169c.854-.121,1.241-.583,1.361-1.627.092-.8.42-1.458.729-1.458.681,0,.16,3.022-.7,4.058-.923,1.113-3.471.873-4.37-.41l-.787-1.124-1.584,1.127a8.971,8.971,0,0,1-7.863.905Zm6.357-1.442c3.142-1.618,3.544-2.463,3.544-7.448,0-2.574-.2-4.679-.434-4.679a30.31,30.31,0,0,0-7.3,2.464c-2.93,1.92-3.651,7.359-1.237,9.332a5.4,5.4,0,0,0,5.426.332Zm61.278.974a12.294,12.294,0,0,1-3.122-3.579c-1.117-2-1.321-3.06-1.325-6.886s.207-4.932,1.352-7.157c1.661-3.228,4.15-5.023,6.965-5.023,4.431,0,7.215,3.063,7.706,8.48l.286,3.151-6.832.149-6.832.149.147,2.386c.229,3.725,1.118,5.811,2.957,6.931,3.265,1.991,6.73.843,8.657-2.869.479-.922.969-1.383,1.09-1.025.36,1.065-2.123,4.961-3.672,5.763a7.689,7.689,0,0,1-7.376-.47Zm8.943-14.731a7.65,7.65,0,0,0-3.736-6.305c-1.217-.691-1.574-.681-3.179.084-2,.953-3.248,3.132-3.822,6.658l-.367,2.253H120ZM-26.991-672.28c0-.271.537-.569,1.193-.662l1.193-.169.14-16.243.14-16.243-1.333-.335c-2.75-.69-1.233-1.375,3.041-1.372,5.861,0,8.154.721,10.817,3.385,3.067,3.067,4.125,6.771,4.106,14.373-.024,9.232-2.02,14.276-6.557,16.568-1.97.995-3.222,1.193-7.551,1.193-2.854,0-5.189-.222-5.189-.493Zm10.241-1.162c3.76-1.932,5.319-5.257,5.935-12.659.715-8.6-1.133-16.149-4.576-18.694-1.352-1-4.592-1.383-5.732-.678-.846.523-.778,31.142.071,31.991.8.8,2.79.818,4.3.041ZM64.2-672.287c0-.276,1.133-.574,2.518-.663l2.518-.161v-20.146l-2.518-.162c-3.6-.231-3.415-1.526.265-1.812a16.147,16.147,0,0,0,3.711-.636c.867-.392.928.293.928,10.463,0,5.985.145,11.259.322,11.72.226.589,1.016.839,2.651.839,1.281,0,2.329.239,2.329.53,0,.324-2.474.53-6.362.53C66.918-671.786,64.2-672,64.2-672.287Zm21.737,0c0-.276,1.133-.574,2.518-.663l2.518-.161.14-16.239.14-16.239-1.2-.322a12.689,12.689,0,0,0-2.658-.329c-.8,0-1.458-.246-1.458-.537s1.014-.539,2.253-.549a8.878,8.878,0,0,0,3.579-.776,7.019,7.019,0,0,1,1.716-.777c.215-.01.453,8.033.53,17.875l.14,17.893,2.518.162c1.385.089,2.518.387,2.518.663s-2.819.5-6.627.5-6.627-.213-6.627-.5Zm40.823,0c0-.275,1.014-.573,2.253-.662l2.253-.163v-20.146l-2.253-.163c-1.239-.09-2.253-.4-2.253-.68,0-.667.671-.857,4.374-1.239l3.048-.314v6.58l1.592-2.166c2.037-2.769,3.747-3.875,5.994-3.875,2.923,0,4.733,3.127,2.758,4.766-1.219,1.012-2.393.243-2.393-1.568,0-3.334-4.094-1.4-6.538,3.095-1.385,2.545-1.441,2.941-1.3,9.185l.149,6.525,2.518.161c1.385.089,2.518.387,2.518.663s-2.72.5-6.362.5-6.362-.215-6.362-.5ZM21.564-676.425c2.979-6.7,5.523-12.83,5.523-13.314,0-.281-2.565-2.931-5.7-5.888L15.688-701l4.772,2.769c2.624,1.522,5.655,3.321,6.734,4l1.963,1.228,2.86-4.895c3.828-6.551,4.2-7.149,3.912-6.22-.138.438-1.349,3.622-2.691,7.077s-2.441,6.363-2.441,6.462a17.084,17.084,0,0,0,2.385,1.892c1.312.942,2.3,1.8,2.2,1.9a8.815,8.815,0,0,1-2.694-.885,17.446,17.446,0,0,0-2.971-1.073c-.256,0-2.409,3.459-4.784,7.688s-4.409,7.688-4.52,7.688a13.935,13.935,0,0,1,1.154-3.049Zm47.753-27.08c-1.149-1.27-1.107-1.982.2-3.284,1.978-1.978,4.475.6,2.9,3C71.432-702.285,70.5-702.2,69.317-703.505Z" transform="translate(0 0)" fill="#fffdfd"/>
  </g>
</svg>
