<?xml version="1.0" encoding="UTF-8" standalone="no"?>
<svg
   xmlns:dc="http://purl.org/dc/elements/1.1/"
   xmlns:cc="http://creativecommons.org/ns#"
   xmlns:rdf="http://www.w3.org/1999/02/22-rdf-syntax-ns#"
   xmlns:svg="http://www.w3.org/2000/svg"
   xmlns="http://www.w3.org/2000/svg"
   viewBox="0 0 1950 432"
   height="432"
   width="1950"
   id="svg833"
   version="1.1">
  <metadata
     id="metadata839">
    <rdf:RDF>
      <cc:Work
         rdf:about="">
        <dc:format>image/svg+xml</dc:format>
        <dc:type
           rdf:resource="http://purl.org/dc/dcmitype/StillImage" />
        <dc:title></dc:title>
      </cc:Work>
    </rdf:RDF>
  </metadata>
  <defs
     id="defs837" />
  <g
     id="g841">
    <path
       id="path845"
       d="m 306.54139,-288.87615 c -35.36215,-14.80673 -57.75632,-54.39192 -61.66349,-108.99984 -4.19767,-58.66789 6.96553,-97.1448 37.39959,-128.90755 23.31759,-24.33558 27.49803,-26.30737 55.77505,-26.30737 50.63607,0 81.65157,34.24267 89.20179,98.48323 l 3.93924,33.51677 h -78.82609 -78.82609 v 18.34308 c 0,31.39265 12.55828,70.08962 27.21445,83.85838 8.53066,8.01414 24.79764,14.40109 41.46222,16.27944 25.57885,2.8831 28.8333,1.59661 48.37359,-19.12213 11.52236,-12.21726 20.94974,-26.07095 20.94974,-30.78598 0,-4.71504 2.7,-8.57279 6,-8.57279 15.75085,0 -3.61199,39.87523 -30.24485,62.2853 -19.44595,16.36269 -54.96168,20.72962 -80.75515,9.92946 z m 90.10054,-172.63571 c -5.31846,-35.46605 -17.06218,-58.65638 -35.98156,-71.05283 -17.52356,-11.48188 -45.06125,-7.16483 -60.06731,9.41669 -12.71948,14.05486 -26.43992,51.72935 -26.78831,73.55709 l -0.26336,16.5 h 63.68126 63.68127 z m 370.85234,169.99072 c -29.0253,-13.11995 -40.00134,-34.14024 -36.55506,-70.00664 4.80996,-50.05787 42.70866,-79.29618 120.58122,-93.02668 26.37921,-4.6512 30.92591,-12.17046 25.34551,-41.91629 -5.5968,-29.83349 -22.33705,-44.62016 -50.51539,-44.62016 -32.39322,0 -54.80916,18.58227 -54.80916,45.43548 0,17.93549 -1.91766,20.56452 -15,20.56452 -12.39966,0 -15,-2.889 -15,-16.66496 0,-36.17623 34.45566,-61.33504 84,-61.33504 36.52525,0 61.05255,11.369 70.83185,32.83235 4.6335,10.16936 7.1681,50.78634 7.1681,114.86727 v 99.13499 l 13.5,-1.9173 c 9.6661,-1.3728 14.0392,-6.60327 15.3986,-18.41731 1.0441,-9.075 4.7566,-16.5 8.25,-16.5 7.7124,0 1.8159,34.19843 -7.9188,45.92815 -10.449,12.59022 -39.2813,9.88225 -49.4565,-4.64502 l -8.9073,-12.71688 -17.92203,12.76163 c -23.40486,16.66573 -64.35354,21.37847 -88.99104,10.24189 z m 71.94156,-16.31955 c 35.55911,-18.31408 40.10551,-27.87006 40.10551,-84.2961 0,-29.12477 -2.2099,-52.95412 -4.911,-52.95412 -11.5839,0 -70.29175,19.82192 -82.60693,27.89114 -33.1602,21.72738 -41.31978,83.28025 -13.9998,105.60886 14.66022,11.98178 42.16806,13.66159 61.41222,3.75022 z m 693.49277,11.01757 c -11.213,-7.55271 -27.1119,-25.77771 -35.331,-40.5 -12.6448,-22.65008 -14.9523,-34.6378 -15,-77.92795 -0.048,-43.18215 2.3383,-55.81346 15.2994,-81 18.7971,-36.52745 46.9679,-56.83984 78.8295,-56.83984 50.1486,0 81.6558,34.66877 87.214,95.9656 l 3.2338,35.66368 -77.3165,1.68536 -77.3165,1.68536 1.6593,27 c 2.5909,42.15959 12.6564,65.7571 33.4592,78.44194 36.9539,22.53307 76.1618,9.53757 97.9686,-32.47172 5.416,-10.43362 10.9676,-15.65356 12.3369,-11.59988 4.0731,12.0585 -24.0246,56.14918 -41.5615,65.21788 -24.6332,12.73835 -60.0123,10.48341 -83.4752,-5.32043 z m 101.2139,-166.71474 c -3.1662,-32.95175 -17.634,-57.3696 -42.2797,-71.35719 -13.7716,-7.816 -17.8091,-7.70902 -35.974,0.95318 -22.6054,10.77982 -36.7616,35.44059 -43.254,75.35096 l -4.1483,25.5 h 64.2908 64.2908 z M -26.458615,-294.6736 c 0,-3.07049 6.075,-6.44549 13.5,-7.5 l 13.50000014,-1.91731 1.58573996,-183.82803 1.58574,-183.82803 -15.0857401,-3.78628 c -31.121753,-7.81107 -13.95069,-15.55689 34.41426,-15.5242 66.33186,0.0448 92.275605,8.16319 122.420325,38.30792 34.71504,34.71504 46.68762,76.6255 46.46677,162.65862 -0.26821,104.4776 -22.85981,161.56027 -74.20686,187.5 -22.289725,11.26042 -36.465675,13.5 -85.451575,13.5 -32.30075986,0 -58.72866,-2.51221 -58.72866,-5.58269 z m 115.89445,-13.15043 c 42.553995,-21.86257 60.194275,-59.49168 67.162565,-143.26688 8.09455,-97.31564 -12.82233,-182.76112 -51.79154,-211.5685 -15.304045,-11.31327 -51.964145,-15.65217 -64.867605,-7.6774 -9.57129,5.91538 -8.80355,352.44022 0.80213,362.0459 9.04599,9.046 31.57534,9.26201 48.69445,0.46686 z m 916.105465,13.06187 c 0,-3.11919 12.825,-6.49419 28.5,-7.5 l 28.5,-1.82875 v -114 -114 l -28.5,-1.82875 c -40.79196,-2.61748 -38.64886,-17.27056 3,-20.51292 17.325,-1.34874 36.225,-4.58749 42,-7.19723 9.8131,-4.43454 10.5,3.31177 10.5,118.40624 0,67.73316 1.6388,127.42203 3.6419,132.64194 2.5562,6.66133 11.4999,9.49072 30,9.49072 14.4969,0 26.3581,2.7 26.3581,6 0,3.66667 -28,6 -72,6 -41.2176,0 -72,-2.42465 -72,-5.67125 z m 246,0 c 0,-3.11919 12.825,-6.49419 28.5,-7.5 l 28.5,-1.82875 1.5857,-183.77781 1.5857,-183.77781 -13.5857,-3.64026 c -7.4721,-2.00214 -21.0107,-3.67713 -30.0857,-3.72219 -9.075,-0.0451 -16.5,-2.78193 -16.5,-6.08193 0,-3.3 11.475,-6.09567 25.5,-6.21261 14.025,-0.11694 32.25,-4.07126 40.5,-8.78739 8.25,-4.71612 16.9891,-8.67045 19.4202,-8.78739 2.4311,-0.11693 5.1311,90.91239 6,202.28739 l 1.5798,202.5 28.5,1.82875 c 15.675,1.00581 28.5,4.38081 28.5,7.5 0,3.2592 -31.8983,5.67125 -75,5.67125 -43.1017,0 -75,-2.41205 -75,-5.67125 z m 462,0.0162 c 0,-3.11026 11.475,-6.48526 25.5,-7.5 l 25.5,-1.84495 v -114 -114 l -25.5,-1.84499 c -14.025,-1.01474 -25.5,-4.47448 -25.5,-7.68831 0,-7.55214 7.5892,-9.70135 49.5,-14.01809 l 34.5,-3.55344 v 37.23443 37.23443 l 18.0224,-24.50661 c 23.0487,-31.34149 42.4078,-43.85742 67.8366,-43.85742 33.0795,0 53.5632,35.3912 31.2174,53.93659 -13.7966,11.45015 -27.0764,2.74539 -27.0764,-17.74828 0,-37.73172 -46.3301,-15.80034 -73.9935,35.02646 -15.6745,28.79907 -16.3085,33.28456 -14.6939,103.94157 l 1.6874,73.84366 28.5,1.82875 c 15.675,1.00581 28.5,4.38081 28.5,7.5 0,3.2466 -30.7824,5.67125 -72,5.67125 -41.0717,0 -72,-2.42917 -72,-5.65501 z M 523.03829,-341.59091 c 33.71556,-75.79946 62.5031,-145.19545 62.5031,-150.67159 0,-3.18088 -29.025,-33.16779 -64.5,-66.63757 l -64.5,-60.85413 54,31.32875 c 29.7,17.23081 63.99564,37.58225 76.21248,45.22543 l 22.21254,13.89667 32.37264,-55.39378 c 43.32504,-74.13486 47.58474,-80.90731 44.2758,-70.39378 -1.5579,4.95 -15.26178,40.99171 -30.453,80.0927 -15.19128,39.10098 -27.62046,72.00822 -27.62046,73.12719 0,1.11896 12.1455,10.75673 26.99004,21.41726 14.84454,10.66053 26.02668,20.34615 24.84918,21.5236 -1.17744,1.17746 -14.8968,-3.32703 -30.48744,-10.00996 -15.59064,-6.68294 -30.71892,-12.15079 -33.61842,-12.15079 -2.8995,0 -27.26286,39.15 -54.14077,87 -26.87792,47.85 -49.89772,87 -51.15511,87 -1.25739,0 4.61935,-15.525 13.05942,-34.5 z m 540.43291,-306.47244 c -13.0049,-14.3703 -12.5261,-22.43136 2.2076,-37.16507 22.3816,-22.38156 50.6421,6.84447 32.8603,33.98294 -11.1336,16.99196 -21.7023,17.95098 -35.0679,3.18213 z"
       style="fill:#000000;stroke-width:6" />
  </g>
</svg>
