<svg
      xmlns="http://www.w3.org/2000/svg"
      width="120"
      height="21"
      version="1.1"
      viewBox="0 0 1951.033 425.922"
    >
      <g transform="translate(27.042 708.878)">
        <path
          fill="current"
          strokeWidth="6"
          d="M306.541-288.876c-35.362-14.807-57.756-54.392-61.663-109-4.198-58.668 6.965-97.145 37.4-128.908 23.317-24.335 27.498-26.307 55.775-26.307 50.636 0 81.651 34.243 89.201 98.483l3.94 33.517H273.54v18.343c0 31.393 12.559 70.09 27.215 83.859 8.53 8.014 24.797 14.4 41.462 16.279 25.579 2.883 28.833 1.597 48.374-19.122 11.522-12.217 20.95-26.071 20.95-30.786s2.7-8.573 6-8.573c15.75 0-3.613 39.875-30.245 62.285-19.446 16.363-54.962 20.73-80.756 9.93zm90.1-172.636c-5.318-35.466-17.061-58.656-35.98-71.053-17.524-11.482-45.062-7.165-60.068 9.417-12.72 14.055-26.44 51.73-26.788 73.557l-.264 16.5h127.362zm370.853 169.99c-29.025-13.12-40.001-34.14-36.555-70.006 4.81-50.058 42.709-79.296 120.581-93.026 26.38-4.652 30.926-12.17 25.346-41.917-5.597-29.833-22.337-44.62-50.515-44.62-32.394 0-54.81 18.582-54.81 45.436 0 17.935-1.917 20.564-15 20.564-12.4 0-15-2.889-15-16.665 0-36.176 34.456-61.335 84-61.335 36.526 0 61.053 11.37 70.832 32.832 4.634 10.17 7.168 50.787 7.168 114.868v99.135l13.5-1.918c9.666-1.372 14.04-6.603 15.399-18.417 1.044-9.075 4.757-16.5 8.25-16.5 7.712 0 1.816 34.199-7.919 45.928-10.449 12.59-39.281 9.882-49.456-4.645l-8.908-12.717-17.922 12.762c-23.405 16.666-64.353 21.378-88.99 10.242zm71.942-16.319c35.559-18.314 40.105-27.87 40.105-84.296 0-29.125-2.21-52.954-4.91-52.954-11.585 0-70.292 19.822-82.608 27.891-33.16 21.728-41.32 83.28-14 105.61 14.66 11.98 42.169 13.66 61.413 3.75zm693.493 11.018c-11.213-7.553-27.112-25.778-35.331-40.5-12.645-22.65-14.953-34.638-15-77.928-.048-43.182 2.338-55.814 15.299-81 18.797-36.528 46.968-56.84 78.83-56.84 50.148 0 81.655 34.669 87.214 95.966l3.233 35.663-77.316 1.686-77.317 1.685 1.66 27c2.59 42.16 12.656 65.757 33.459 78.442 36.954 22.533 76.162 9.538 97.968-32.472 5.416-10.433 10.968-15.653 12.337-11.6 4.073 12.059-24.024 56.15-41.561 65.218-24.633 12.739-60.012 10.484-83.475-5.32zm101.213-166.715c-3.166-32.952-17.634-57.37-42.28-71.357-13.77-7.816-17.808-7.71-35.973.953-22.606 10.78-36.762 35.44-43.254 75.351l-4.148 25.5H1637.068zm-1660.6 168.864c0-3.07 6.074-6.445 13.5-7.5l13.5-1.917 1.585-183.828 1.586-183.828-15.086-3.786c-31.122-7.811-13.95-15.557 34.414-15.524 66.332.044 92.276 8.163 122.42 38.307 34.716 34.716 46.688 76.626 46.467 162.66-.268 104.477-22.86 161.56-74.206 187.5-22.29 11.26-36.466 13.5-85.452 13.5-32.3 0-58.729-2.513-58.729-5.584zm115.894-13.15c42.554-21.863 60.194-59.492 67.162-143.267 8.095-97.316-12.822-182.761-51.791-211.568-15.304-11.314-51.964-15.653-64.868-7.678-9.571 5.916-8.803 352.44.802 362.046 9.046 9.046 31.576 9.262 48.695.467zm916.105 13.062c0-3.12 12.825-6.494 28.5-7.5l28.5-1.829v-228l-28.5-1.829c-40.792-2.617-38.649-17.27 3-20.513 17.325-1.348 36.225-4.587 42-7.197 9.813-4.434 10.5 3.312 10.5 118.406 0 67.734 1.64 127.422 3.642 132.642 2.556 6.662 11.5 9.491 30 9.491 14.497 0 26.358 2.7 26.358 6 0 3.667-28 6-72 6-41.217 0-72-2.425-72-5.671zm246 0c0-3.12 12.825-6.494 28.5-7.5l28.5-1.829 1.586-183.778 1.586-183.778-13.586-3.64c-7.472-2.002-21.01-3.677-30.086-3.722-9.075-.045-16.5-2.782-16.5-6.082s11.475-6.096 25.5-6.213c14.025-.116 32.25-4.07 40.5-8.787 8.25-4.716 16.99-8.67 19.42-8.787 2.432-.117 5.132 90.912 6 202.287l1.58 202.5 28.5 1.829c15.675 1.006 28.5 4.38 28.5 7.5 0 3.259-31.898 5.671-75 5.671-43.101 0-75-2.412-75-5.671zm462 .016c0-3.11 11.475-6.485 25.5-7.5l25.5-1.845v-228l-25.5-1.845c-14.025-1.015-25.5-4.474-25.5-7.688 0-7.552 7.59-9.702 49.5-14.018l34.5-3.554v74.469l18.023-24.506c23.048-31.342 42.407-43.858 67.836-43.858 33.08 0 53.563 35.391 31.218 53.937-13.797 11.45-27.077 2.745-27.077-17.749 0-37.731-46.33-15.8-73.993 35.027-15.675 28.799-16.309 33.284-14.694 103.941l1.687 73.844 28.5 1.829c15.675 1.006 28.5 4.38 28.5 7.5 0 3.246-30.782 5.671-72 5.671-41.071 0-72-2.43-72-5.655zM523.038-341.591c33.716-75.8 62.503-145.195 62.503-150.672 0-3.18-29.025-33.167-64.5-66.637l-64.5-60.854 54 31.329c29.7 17.23 63.996 37.582 76.213 45.225l22.212 13.897 32.373-55.394c43.325-74.135 47.585-80.907 44.276-70.394-1.558 4.95-15.262 40.992-30.453 80.093-15.191 39.1-27.62 72.008-27.62 73.127 0 1.119 12.145 10.757 26.99 21.417 14.844 10.66 26.026 20.346 24.849 21.524-1.178 1.177-14.897-3.327-30.488-10.01-15.59-6.683-30.719-12.15-33.618-12.15-2.9 0-27.263 39.15-54.141 87-26.878 47.85-49.898 87-51.155 87-1.258 0 4.62-15.526 13.06-34.5zm540.433-306.472c-13.005-14.37-12.526-22.432 2.208-37.165 22.381-22.382 50.642 6.844 32.86 33.983-11.134 16.991-21.702 17.95-35.068 3.182z"
        ></path>
      </g>
    </svg>